<?xml version="1.0" standalone="no"?>
<!DOCTYPE svg PUBLIC "-//W3C//DTD SVG 20010904//EN"
 "http://www.w3.org/TR/2001/REC-SVG-20010904/DTD/svg10.dtd">
<svg version="1.0" xmlns="http://www.w3.org/2000/svg"
 width="350.000000pt" height="400.000000pt" viewBox="0 0 350.000000 400.000000"
 preserveAspectRatio="xMidYMid meet">

<g transform="translate(0.000000,400.000000) scale(0.100000,-0.100000)"
fill="#FFFFFF" stroke="none">
<path d="M612 3812 c-28 -11 -62 -28 -73 -38 -35 -31 -61 -103 -71 -193 -8
-86 -27 -131 -53 -131 -8 0 -56 -16 -107 -35 -80 -29 -100 -41 -141 -87 -27
-29 -56 -66 -64 -82 -34 -66 11 -213 90 -294 49 -50 136 -82 222 -82 36 0 59
-5 70 -16 15 -15 15 -18 -3 -38 -111 -125 -232 -281 -276 -353 -86 -144 -112
-267 -96 -462 17 -211 74 -328 271 -558 65 -76 119 -143 119 -150 0 -21 -37
-33 -103 -33 -152 0 -270 -109 -297 -274 -11 -69 2 -104 64 -172 63 -70 138
-105 229 -107 31 -1 57 -5 57 -10 0 -4 -12 -24 -26 -43 -34 -44 -84 -187 -84
-241 0 -47 31 -137 58 -169 52 -62 177 -81 292 -44 58 19 77 30 104 64 36 45
66 113 66 151 0 13 4 26 9 29 5 3 42 -9 82 -28 162 -74 403 -147 554 -167 132
-17 427 -5 525 22 111 30 316 103 390 138 75 36 100 39 100 12 0 -37 33 -120
62 -156 73 -88 271 -115 369 -50 51 33 80 98 90 203 5 47 15 95 23 106 7 12
40 30 72 40 120 40 158 62 216 124 32 35 59 75 63 93 10 46 -3 115 -36 186
-52 109 -142 163 -270 163 -51 0 -70 4 -82 18 -16 17 -10 26 96 153 239 284
281 378 279 624 -2 246 -58 384 -245 603 -140 164 -151 180 -138 195 7 9 41
16 89 20 42 3 94 12 115 18 89 29 170 141 187 259 7 45 5 62 -11 95 -46 99
-159 173 -275 183 -35 2 -64 8 -64 13 0 4 12 22 27 39 34 41 83 187 83 248 0
60 -46 161 -86 187 -70 45 -196 49 -293 9 -70 -29 -126 -106 -137 -187 -4 -28
-12 -47 -19 -47 -7 0 -44 14 -82 31 -166 74 -422 149 -578 168 -129 15 -406 0
-505 -29 -116 -33 -320 -106 -391 -140 -35 -16 -69 -30 -75 -30 -6 0 -14 20
-17 45 -13 95 -74 171 -159 199 -82 27 -154 30 -216 8z m235 -96 c75 -37 87
-56 80 -118 -8 -66 -30 -96 -90 -127 -40 -20 -54 -22 -94 -15 -36 7 -51 16
-62 36 -14 23 -13 30 4 68 23 51 69 80 92 58 12 -13 9 -18 -21 -42 -70 -53
-25 -104 59 -67 47 21 59 37 69 93 6 35 5 39 -35 65 -29 19 -57 28 -97 31 -51
3 -60 1 -92 -26 -33 -29 -35 -32 -38 -108 -3 -74 -2 -82 27 -125 44 -65 114
-96 241 -106 79 -5 114 2 360 77 200 62 375 90 561 90 215 0 360 -27 729 -135
112 -33 134 -37 210 -33 122 7 195 37 238 102 28 42 32 57 32 113 0 102 -41
153 -122 153 -37 0 -105 -28 -130 -54 -19 -19 -15 -65 8 -103 30 -48 144 -67
144 -24 0 22 -28 61 -44 61 -15 0 -28 24 -19 34 26 26 84 -14 104 -71 37 -109
-146 -126 -224 -21 -29 39 -35 123 -11 150 59 66 199 89 267 43 48 -33 66 -71
74 -150 5 -56 3 -71 -21 -119 -52 -107 -153 -156 -319 -156 -76 0 -111 6 -231
41 -353 104 -451 122 -681 123 -231 1 -313 -14 -700 -128 -147 -44 -254 -48
-355 -15 -84 27 -104 42 -148 108 -35 52 -37 61 -37 131 1 96 20 139 80 171
56 31 125 29 192 -5z m1308 -46 c94 -22 202 -52 240 -66 96 -36 294 -136 300
-152 12 -31 -33 -24 -110 18 -155 83 -294 129 -550 180 -94 19 -129 22 -240
16 -169 -8 -196 -12 -345 -47 -154 -36 -235 -66 -372 -137 -98 -50 -138 -60
-138 -33 0 6 39 31 87 57 200 109 471 189 688 204 180 11 245 6 440 -40z
m-1642 -347 c27 -8 65 -29 84 -46 42 -37 114 -180 137 -273 30 -115 15 -342
-29 -464 -9 -25 -25 -82 -36 -128 -10 -46 -26 -96 -34 -111 -35 -68 -28 -386
10 -481 8 -19 26 -82 40 -139 15 -58 30 -112 35 -121 15 -27 40 -205 40 -278
0 -137 -81 -355 -157 -423 -47 -43 -128 -72 -198 -73 -44 -1 -57 4 -106 41
-55 40 -57 44 -68 106 -26 150 -6 191 111 227 131 40 181 6 186 -128 2 -64 -1
-83 -17 -109 -21 -33 -26 -35 -94 -35 -48 0 -83 30 -99 84 -10 34 -9 42 9 66
24 32 77 42 87 17 3 -9 0 -18 -9 -20 -8 -3 -22 -7 -30 -10 -20 -6 -19 -45 1
-73 23 -33 87 -31 102 3 27 58 7 160 -34 175 -32 12 -149 -25 -169 -53 -18
-26 -18 -41 -4 -123 10 -57 14 -64 57 -95 54 -39 90 -41 173 -10 71 27 100 58
143 153 70 153 85 254 61 411 -8 58 -22 124 -30 148 -9 24 -25 80 -36 124 -11
44 -29 103 -41 130 -18 43 -22 77 -26 236 l-5 185 31 95 c131 406 143 552 61
757 -32 79 -89 164 -120 179 -15 7 -56 21 -92 30 l-65 17 -42 -29 c-58 -40
-69 -61 -77 -138 -8 -85 6 -107 79 -130 74 -23 104 -22 122 6 30 48 26 148 -8
173 -24 17 -73 5 -91 -23 -21 -32 -16 -56 15 -63 33 -8 34 -44 2 -48 -37 -5
-72 34 -72 79 0 29 8 46 34 73 28 30 40 36 75 36 57 0 76 -12 95 -60 20 -51
20 -104 0 -162 -12 -36 -23 -50 -52 -64 -35 -16 -39 -16 -111 5 -128 38 -154
83 -127 216 9 43 18 80 20 82 2 2 27 21 55 43 50 36 55 38 109 33 31 -2 79
-12 105 -20z m1560 -4 c70 -6 192 -27 287 -49 91 -21 203 -46 250 -55 47 -9
93 -19 103 -21 18 -6 23 -29 8 -38 -10 -7 -240 39 -418 83 -268 66 -715 65
-978 -1 -191 -47 -399 -87 -409 -78 -22 22 8 37 120 58 66 13 184 39 262 58
79 19 183 38 230 43 128 12 406 13 545 0z m1118 -127 c62 -41 77 -61 89 -122
21 -111 6 -177 -48 -203 -15 -8 -55 -21 -89 -31 -56 -15 -65 -15 -98 -2 -45
19 -65 64 -65 146 0 95 32 140 99 140 47 0 81 -21 102 -62 25 -49 24 -74 -6
-103 -26 -27 -54 -32 -73 -13 -15 15 3 38 29 38 23 0 26 45 5 73 -13 17 -67
29 -84 18 -50 -33 -39 -184 15 -197 33 -9 131 22 161 49 25 23 26 36 11 124
-11 60 -15 67 -58 99 -41 31 -51 34 -91 28 -112 -15 -166 -53 -214 -150 -77
-156 -97 -292 -67 -454 22 -116 82 -336 107 -389 13 -26 18 -79 22 -227 5
-190 4 -195 -21 -266 -14 -40 -36 -111 -47 -158 -12 -46 -26 -93 -32 -103 -15
-29 -38 -193 -38 -277 0 -84 21 -170 68 -272 46 -102 77 -135 149 -159 87 -28
113 -27 165 9 53 37 58 45 65 135 5 56 3 71 -12 87 -22 24 -133 62 -161 54
-29 -8 -44 -45 -44 -110 0 -73 12 -94 53 -94 38 0 50 7 66 38 16 30 6 60 -22
64 -34 5 -27 33 10 36 55 5 81 -63 48 -128 -8 -16 -24 -34 -34 -40 -30 -15
-117 -12 -134 5 -40 39 -47 158 -14 222 17 31 54 53 91 53 40 0 139 -39 167
-66 15 -14 30 -41 34 -60 7 -40 -12 -149 -31 -181 -20 -31 -115 -94 -128 -84
-6 4 -33 8 -61 9 -121 4 -176 45 -241 180 -56 114 -74 192 -74 312 1 143 32
292 110 525 41 124 36 369 -10 519 -42 136 -89 315 -99 377 -26 157 -4 298 68
444 57 115 83 142 166 171 95 32 140 31 196 -4z m-826 -132 c143 -12 153 -15
160 -43 10 -40 10 -212 1 -1112 -7 -700 -11 -897 -22 -923 l-13 -32 -93 -1
c-394 -3 -1355 2 -1406 7 -44 4 -72 13 -88 28 l-24 21 -2 970 c-3 1064 -6 996
56 1054 24 23 31 24 263 31 370 11 1035 11 1168 0z m-1835 -339 c0 -9 -14 -30
-31 -47 -49 -46 -179 -232 -221 -316 -32 -63 -42 -99 -55 -191 -16 -104 -16
-121 -1 -208 18 -109 67 -221 138 -314 25 -33 54 -73 63 -88 10 -15 40 -53 68
-83 53 -58 58 -71 33 -81 -18 -7 -71 48 -136 142 -23 33 -56 78 -74 100 -37
47 -100 169 -120 234 -24 78 -28 234 -10 338 18 103 72 226 129 296 18 23 49
66 69 95 45 68 127 154 139 147 5 -4 9 -14 9 -24z m46 -75 c3 -8 -12 -49 -34
-92 -21 -44 -55 -128 -74 -189 -46 -142 -59 -332 -33 -461 22 -105 74 -253
119 -339 30 -58 34 -71 23 -83 -11 -11 -16 -11 -24 0 -31 39 -86 157 -120 258
l-38 115 0 215 0 215 34 105 c30 94 88 224 114 258 13 16 26 15 33 -2z m2478
-88 c124 -146 237 -330 265 -433 22 -79 24 -224 6 -329 -17 -101 -67 -221
-118 -282 -13 -16 -42 -56 -64 -89 -52 -78 -131 -165 -149 -165 -27 0 -14 31
41 98 169 208 227 313 251 459 16 101 14 206 -7 288 -26 102 -120 256 -256
421 -29 35 -53 68 -53 74 0 27 43 5 84 -42z m-53 -110 c75 -152 108 -267 119
-416 11 -139 6 -260 -11 -327 -42 -160 -131 -355 -161 -355 -26 0 -22 19 18
96 67 127 105 262 116 414 6 92 6 158 -1 206 -14 93 -69 260 -119 360 -21 43
-37 85 -35 92 11 30 35 6 74 -70z m-401 -1618 c0 -11 -2 -20 -4 -20 -14 0
-346 -72 -412 -90 -96 -25 -321 -49 -464 -49 -155 -1 -424 25 -510 48 -41 11
-142 34 -225 51 -191 40 -184 37 -156 57 21 14 32 14 134 -7 62 -12 164 -34
227 -50 134 -33 163 -37 365 -50 221 -14 440 2 625 46 177 42 367 82 398 83
16 1 22 -5 22 -19z m-1645 -140 c42 -11 117 -33 168 -50 50 -16 161 -43 245
-60 136 -27 173 -30 332 -30 160 0 195 3 327 30 81 17 182 42 223 55 185 60
257 75 352 75 173 0 259 -44 320 -163 17 -34 20 -53 15 -108 -7 -82 -26 -121
-74 -154 -68 -46 -184 -28 -257 40 -40 37 -30 128 18 176 77 78 234 51 212
-35 -14 -55 -83 -106 -109 -80 -9 10 4 34 19 34 16 0 44 39 44 61 0 25 -50 33
-93 15 -63 -26 -93 -107 -54 -144 55 -51 140 -65 195 -32 41 25 52 54 52 139
0 60 -4 73 -30 109 -48 66 -137 102 -256 102 -75 0 -146 -15 -334 -73 -63 -19
-176 -48 -250 -63 -122 -26 -153 -29 -325 -28 -107 0 -216 6 -250 13 -176 36
-259 56 -342 82 -179 56 -241 69 -326 69 -186 0 -287 -75 -287 -214 0 -81 18
-118 69 -141 38 -17 48 -17 89 -6 26 7 62 24 80 38 29 22 32 29 27 56 -10 51
-25 73 -61 91 -38 18 -72 20 -93 7 -22 -14 -5 -59 30 -76 32 -17 34 -38 5 -43
-49 -10 -107 77 -86 128 19 45 102 55 171 19 70 -35 104 -154 58 -200 -34 -34
-120 -69 -169 -69 -55 0 -117 33 -142 75 -9 17 -20 62 -24 101 -6 63 -4 75 20
121 31 62 87 111 152 134 72 26 242 25 339 -1z m-22 -159 c149 -80 230 -108
479 -165 144 -33 195 -37 351 -26 252 17 489 83 693 192 75 40 93 46 103 35
15 -19 -5 -35 -109 -87 -126 -63 -249 -108 -400 -147 -131 -34 -141 -35 -345
-36 l-210 -2 -160 42 c-195 51 -304 90 -415 150 -104 56 -110 61 -103 79 8 21
16 18 116 -35z"/>
</g>
</svg>
